# xmcd
#
# Track frame offsets:
#	150
#	32700
#	44095
#	81005
#	94307
#	128800
#	147840
#	172035
#	191732
#	210807
#	221472
#	237750
#
# Disc length: 3345 seconds
#
# Revision: 11
# Processed by: cddbd v1.5.2PL0 Copyright (c) Steve Scherf et al.
# Submitted via: EZCDAudioConverter 2.2.0.1
#
DISCID=a70d0f0c
DTITLE=Paul Manuel - Tinuke Olafimihan - CorolineO'Connor - Nicholas Warnford 
DTITLE=Nick Ferranti - Nat. SO - John Owen Edwards  - Bernstein Leonard - We
DTITLE=st Side Story - Nat. SO - John Owen Edwards - 823
DYEAR=1993
DGENRE=Musical
TTITLE0=West Side Story - Prologue And Jet Song
TTITLE1=West Side Story - Something's Coming
TTITLE2=West Side Story - The Dance At The Gym
TTITLE3=West Side Story - Maria
TTITLE4=West Side Story - Tonight
TTITLE5=West Side Story - America
TTITLE6=West Side Story - One Hand, One Heart
TTITLE7=West Side Story - I Feel Pretty
TTITLE8=West Side Story - Gee, Officer Krupke
TTITLE9=West Side Story - A Boy Like That
TTITLE10=West Side Story - I Have A Love
TTITLE11=West Side Story - Somewhere
EXTD=
EXTT0=
EXTT1=
EXTT2=
EXTT3=
EXTT4=
EXTT5=
EXTT6=
EXTT7=
EXTT8=
EXTT9=
EXTT10=
EXTT11=
PLAYORDER=
